<svg width="30" height="30" viewBox="0 0 30 30" fill="none" xmlns="http://www.w3.org/2000/svg">
<path d="M14.0637 2.51782C17.0915 2.51782 19.5609 4.94493 19.5609 7.93307V13.7752H12.1154C11.5818 13.7752 11.1599 14.1899 11.1599 14.7143C11.1599 15.2266 11.5818 15.6535 12.1154 15.6535H19.5609V21.4834C19.5609 24.4715 17.0915 26.9108 14.0388 26.9108H7.99554C4.95528 26.9108 2.48584 24.4837 2.48584 21.4956V7.94526C2.48584 4.94493 4.96769 2.51782 8.00795 2.51782H14.0637ZM22.6591 10.5068C23.025 10.1287 23.6226 10.1287 23.9885 10.4946L27.5499 14.0438C27.7328 14.2267 27.8304 14.4584 27.8304 14.7146C27.8304 14.9585 27.7328 15.2024 27.5499 15.3732L23.9885 18.9224C23.8056 19.1053 23.5616 19.2029 23.3299 19.2029C23.086 19.2029 22.842 19.1053 22.6591 18.9224C22.2932 18.5565 22.2932 17.9588 22.6591 17.5929L24.6105 15.6537H19.5612V13.7754H24.6105L22.6591 11.8362C22.2932 11.4703 22.2932 10.8727 22.6591 10.5068Z" fill="white"/>
</svg>
